<?xml version="1.0" standalone="no"?>
<!DOCTYPE svg PUBLIC "-//W3C//DTD SVG 20010904//EN"
 "http://www.w3.org/TR/2001/REC-SVG-20010904/DTD/svg10.dtd">
<svg version="1.0" xmlns="http://www.w3.org/2000/svg"
 width="738.000000pt" height="738.000000pt" viewBox="0 0 738.000000 738.000000"
 preserveAspectRatio="xMidYMid meet">
<metadata>
Created by potrace 1.11, written by Peter Selinger 2001-2013
</metadata>
<g transform="translate(0.000000,738.000000) scale(0.100000,-0.100000)"
fill="#000000" stroke="none">
<path d="M3529 7336 c-137 -24 -245 -60 -374 -124 -80 -39 -213 -127 -265
-173 -55 -50 -132 -104 -167 -118 -46 -19 -104 -16 -223 9 -156 33 -411 33
-545 -1 -22 -5 -47 -11 -55 -13 -209 -52 -421 -191 -536 -351 -43 -61 -101
-174 -108 -211 -2 -11 -9 -39 -16 -64 -30 -113 -15 -309 37 -473 27 -87 100
-264 131 -319 118 -206 241 -363 452 -577 110 -110 233 -223 316 -291 11 -9
55 -45 99 -81 44 -36 135 -107 203 -158 67 -50 122 -94 122 -96 0 -5 -90 34
-105 45 -5 4 -21 11 -35 15 -14 4 -47 18 -75 30 -218 98 -659 236 -865 270
-19 3 -42 7 -50 10 -16 4 -83 12 -210 24 -77 8 -359 6 -395 -2 -11 -3 -40 -8
-65 -12 -60 -10 -183 -51 -245 -82 -202 -103 -380 -305 -475 -543 -12 -30 -26
-64 -31 -75 -10 -23 -27 -100 -37 -165 -11 -74 -7 -290 8 -365 30 -160 109
-350 199 -484 23 -34 76 -101 118 -149 126 -146 138 -189 97 -362 -19 -85 -29
-356 -14 -430 4 -25 10 -58 13 -75 37 -228 173 -471 336 -599 107 -83 207
-130 331 -154 65 -13 282 -6 353 11 221 54 498 193 687 344 30 24 73 59 95 76
128 102 449 448 600 647 28 36 52 67 55 70 3 3 16 18 28 34 29 38 28 32 -12
-55 -18 -41 -37 -85 -41 -99 -4 -14 -13 -38 -21 -55 -61 -139 -176 -519 -199
-660 -4 -22 -9 -53 -11 -70 -3 -16 -7 -41 -10 -55 -18 -105 -25 -423 -11 -505
21 -129 31 -160 81 -269 66 -143 173 -267 331 -384 31 -23 156 -93 190 -107
22 -10 54 -23 70 -30 86 -38 209 -59 360 -59 318 -1 570 95 847 323 132 108
168 115 383 67 97 -21 130 -24 280 -21 172 3 217 10 367 56 183 56 361 179
466 322 67 90 112 198 137 327 9 46 6 198 -5 262 -37 207 -138 452 -267 645
-213 319 -593 688 -1084 1054 -166 123 -189 142 -162 129 135 -63 555 -216
738 -269 194 -55 419 -106 523 -117 30 -3 65 -8 76 -10 87 -17 373 -23 505
-10 258 25 451 112 611 275 211 215 327 508 316 801 -7 175 -39 303 -116 467
-72 151 -148 258 -288 403 -64 67 -102 136 -102 188 0 21 7 85 16 143 20 129
13 335 -15 459 -118 521 -498 824 -945 754 -148 -24 -336 -98 -515 -204 -252
-149 -553 -444 -826 -810 -43 -58 -75 -96 -71 -85 89 229 191 593 212 755 2
19 7 46 9 60 18 98 24 388 11 489 -51 369 -277 641 -671 806 -130 54 -390 78
-546 51z"/>
</g>
</svg>
