<?xml version="1.0" encoding="UTF-8" standalone="no"?>
<!-- Created with Inkscape (http://www.inkscape.org/) -->

<svg
   xmlns:dc="http://purl.org/dc/elements/1.1/"
   xmlns:cc="http://creativecommons.org/ns#"
   xmlns:rdf="http://www.w3.org/1999/02/22-rdf-syntax-ns#"
   xmlns:svg="http://www.w3.org/2000/svg"
   xmlns="http://www.w3.org/2000/svg"
   xmlns:sodipodi="http://sodipodi.sourceforge.net/DTD/sodipodi-0.dtd"
   xmlns:inkscape="http://www.inkscape.org/namespaces/inkscape"
   width="297mm"
   height="210mm"
   viewBox="0 0 297 210"
   version="1.1"
   id="svg1424"
   inkscape:version="0.92.4 (5da689c313, 2019-01-14)"
   sodipodi:docname="bgMobile.svg">
  <defs
     id="defs1418">
    <clipPath
       clipPathUnits="userSpaceOnUse"
       id="clipPath2051">
      <rect
         style="opacity:0.694;fill:#ffffff;fill-opacity:1;fill-rule:evenodd;stroke:none;stroke-width:10.64833641;stroke-miterlimit:4;stroke-dasharray:none;stroke-opacity:1;paint-order:stroke fill markers"
         id="rect2053"
         width="1372.339"
         height="800.88605"
         x="3.362393e-06"
         y="1.7077889e-06" />
    </clipPath>
  </defs>
  <sodipodi:namedview
     id="base"
     pagecolor="#ffffff"
     bordercolor="#666666"
     borderopacity="1.0"
     inkscape:pageopacity="0.0"
     inkscape:pageshadow="2"
     inkscape:zoom="0.49497475"
     inkscape:cx="344.87678"
     inkscape:cy="337.78685"
     inkscape:document-units="mm"
     inkscape:current-layer="layer1"
     showgrid="false"
     inkscape:window-width="1366"
     inkscape:window-height="715"
     inkscape:window-x="-8"
     inkscape:window-y="-8"
     inkscape:window-maximized="1" />
  <metadata
     id="metadata1421">
    <rdf:RDF>
      <cc:Work
         rdf:about="">
        <dc:format>image/svg+xml</dc:format>
        <dc:type
           rdf:resource="http://purl.org/dc/dcmitype/StillImage" />
        <dc:title></dc:title>
      </cc:Work>
    </rdf:RDF>
  </metadata>
  <g
     inkscape:label="Layer 1"
     inkscape:groupmode="layer"
     id="layer1"
     transform="translate(0,-87)">
    <g
       id="g2024"
       transform="matrix(0.21747852,0,0,0.26412777,0.16253556,87.278024)"
       clip-path="url(#clipPath2051)">
	<g
   id="Warstwa_1-2">
		
			<linearGradient
   gradientTransform="matrix(1,0,0,-1,0,753.2756)"
   y2="-30.1719"
   x2="59.894402"
   y1="496.4574"
   x1="1006.0781"
   gradientUnits="userSpaceOnUse"
   id="SVGID_1_">
			<stop
   id="stop2010"
   style="stop-color:#2AA9FF"
   offset="1.000000e-02" />

			<stop
   id="stop2012"
   style="stop-color:#2CB2FD"
   offset="0.18" />

			<stop
   id="stop2014"
   style="stop-color:#32CBF8"
   offset="0.47" />

			<stop
   id="stop2016"
   style="stop-color:#3CF3EF"
   offset="0.83" />

			<stop
   id="stop2018"
   style="stop-color:#3FFFEC"
   offset="0.93" />

		</linearGradient>

		<path
   id="path2021"
   d="m 129.3,811 c 42.3,-0.6 85.5,9.5 123.2,32.2 4.7,2.8 9.6,5.9 14.8,5.9 5.2,0 10,-3.1 14.6,-5.9 79.8,-49 181,-47.7 259.9,3.4 6.5,4.2 13.2,8.8 20.7,8.7 5.6,-0.1 10.8,-2.9 16,-5.4 70.5,-34.9 154,-32.6 223,6.1 5.3,2.9 10.7,6.2 16.5,6.3 6.9,0.2 13.3,-3.8 19.4,-7.4 78.7,-46.5 177.3,-44.6 254.7,5.1 4,2.6 8.1,5.3 12.7,6.1 5.3,0.8 10.5,-1.2 15.6,-3.1 37.2,-14.4 70.9,-27.6 110.6,-28.3 47.2,-0.9 93.8,12.4 135.2,38.6 V 421.8 c 0,0 -7,-210.9 -332,-214.4 C 709,204 683,0 683,0 H 0 V 850.7 C 39.6,825.3 84,811.6 129.3,811 Z"
   class="st0"
   inkscape:connector-curvature="0"
   style="fill:url(#SVGID_1_)" />

	</g>

</g>
    <rect
       style="opacity:0.694;fill:#ffffff;fill-opacity:1;fill-rule:evenodd;stroke:none;stroke-width:2.87199998;stroke-miterlimit:4;stroke-dasharray:none;stroke-opacity:1;paint-order:stroke fill markers"
       id="rect2043"
       width="10.519083"
       height="113.26245"
       x="-156.48215"
       y="16.67207" />
  </g>
  <style
     id="style1969"
     type="text/css">
	.st0{fill:url(#SVGID_1_);}
</style>
  <style
     id="style2006"
     type="text/css">
	.st0{fill:url(#SVGID_1_);}
</style>
</svg>
