<?xml version="1.0" encoding="UTF-8" standalone="no"?>
<!-- Created with Inkscape (http://www.inkscape.org/) -->

<svg
   xmlns:dc="http://purl.org/dc/elements/1.1/"
   xmlns:cc="http://creativecommons.org/ns#"
   xmlns:rdf="http://www.w3.org/1999/02/22-rdf-syntax-ns#"
   xmlns:svg="http://www.w3.org/2000/svg"
   xmlns="http://www.w3.org/2000/svg"
   xmlns:sodipodi="http://sodipodi.sourceforge.net/DTD/sodipodi-0.dtd"
   xmlns:inkscape="http://www.inkscape.org/namespaces/inkscape"
   width="210mm"
   height="297mm"
   viewBox="0 0 210 297"
   version="1.1"
   id="svg8"
   inkscape:version="0.92.4 (5da689c313, 2019-01-14)"
   sodipodi:docname="frontend2.svg">
  <defs
     id="defs2" />
  <sodipodi:namedview
     id="base"
     pagecolor="#ffffff"
     bordercolor="#666666"
     borderopacity="1.0"
     inkscape:pageopacity="0.0"
     inkscape:pageshadow="2"
     inkscape:zoom="0.35"
     inkscape:cx="-64.285714"
     inkscape:cy="560"
     inkscape:document-units="mm"
     inkscape:current-layer="g835"
     showgrid="false"
     inkscape:window-width="1366"
     inkscape:window-height="715"
     inkscape:window-x="-8"
     inkscape:window-y="-8"
     inkscape:window-maximized="1" />
  <metadata
     id="metadata5">
    <rdf:RDF>
      <cc:Work
         rdf:about="">
        <dc:format>image/svg+xml</dc:format>
        <dc:type
           rdf:resource="http://purl.org/dc/dcmitype/StillImage" />
        <dc:title></dc:title>
      </cc:Work>
    </rdf:RDF>
  </metadata>
  <g
     inkscape:label="Layer 1"
     inkscape:groupmode="layer"
     id="layer1">
    <rect
       style="fill:#ffffff;fill-opacity:1;fill-rule:nonzero;stroke:none;stroke-width:2.72988009;stroke-miterlimit:4;stroke-dasharray:none;stroke-opacity:1;paint-order:stroke fill markers"
       id="rect837"
       width="181.42856"
       height="180.67296"
       x="-210.91072"
       y="61.142532" />
    <g
       id="g835"
       transform="matrix(0.35277779,0,0,0.35277779,23.047097,50.559539)"
       style="fill:#000000;fill-opacity:1">
      <path
         id="path815"
         d="M 463.94336,-6.4285712 H 3.0566425 c -34.7707215,0 -63.0566405,27.3671222 -63.0566405,61.0084032 V 365.16807 c 0,33.64127 28.285919,61.00839 63.0566405,61.00839 H 152.31457 l -11.46483,33.27732 h -10.53333 c -28.44715,0 -51.591799,22.39286 -51.591799,49.91596 v 33.27731 c 0,9.19027 7.698459,16.63866 17.197266,16.63866 H 371.07812 c 9.49881,0 17.19727,-7.44839 17.19727,-16.63866 v -33.27731 c 0,-27.5231 -23.14465,-49.91596 -51.59179,-49.91596 H 326.15027 L 314.68542,426.17646 H 463.94336 C 498.71407,426.17646 527,398.80934 527,365.16807 V 54.579832 C 527,20.938551 498.71407,-6.4285712 463.94336,-6.4285712 Z M 3.0566425,26.84874 H 463.94336 c 15.80447,0 28.66211,12.439995 28.66211,27.731092 V 326.34454 H -25.605467 V 54.579832 c 0,-15.291097 12.857643,-27.731092 28.6621095,-27.731092 z M 353.88086,509.36974 V 526.0084 H 113.11914 v -16.63866 c 0,-9.17291 7.71638,-16.63865 17.19727,-16.63865 H 336.6836 c 9.48088,0 17.19726,7.46574 17.19726,16.63865 z M 289.8927,459.45378 H 177.1073 l 11.46485,-33.27732 h 89.85571 z m 202.71277,-94.28571 c 0,15.2911 -12.85764,27.73108 -28.66211,27.73108 H 3.0566425 c -15.8044665,0 -28.6621095,-12.43998 -28.6621095,-27.73108 v -5.54622 H 492.60547 Z m 0,0"
         inkscape:connector-curvature="0"
         style="fill:#000000;fill-opacity:1;stroke-width:1.12771034" />
      <path
         id="path817"
         d="m 313.05974,254.91532 c 3.35437,3.24973 7.75669,4.8746 12.15901,4.8746 4.40231,0 8.80464,-1.62487 12.15901,-4.8746 l 68.78906,-66.55463 c 6.71767,-6.49515 6.71767,-17.03296 0,-23.5281 L 337.37776,98.277966 c -6.71321,-6.499474 -17.60481,-6.499474 -24.31802,0 -6.71767,6.495134 -6.71767,17.028614 0,23.528104 l 56.62559,54.79057 -56.62559,54.79057 c -6.71767,6.49514 -6.71767,17.03296 0,23.52811 z m 0,0"
         inkscape:connector-curvature="0"
         style="fill:#000000;fill-opacity:1;stroke-width:1.12771034" />
      <path
         id="path819"
         d="m 129.62224,254.91532 c 3.35437,3.24973 7.75669,4.8746 12.15901,4.8746 4.40232,0 8.80465,-1.62487 12.15901,-4.8746 6.71767,-6.49515 6.71767,-17.03297 0,-23.52811 L 97.314672,176.59664 153.94026,121.80607 c 6.71767,-6.49515 6.71767,-17.03297 0,-23.528104 -6.71321,-6.499474 -17.60033,-6.499474 -24.31802,0 L 60.833183,164.83259 c -6.71768,6.49514 -6.71768,17.02862 0,23.5281 z m 0,0"
         inkscape:connector-curvature="0"
         style="fill:#000000;fill-opacity:1;stroke-width:1.12771034" />
      <path
         id="path821"
         d="m 193.66862,292.21363 c 1.80034,0.58062 3.63652,0.85793 5.44133,0.85793 7.19687,0 13.91008,-4.41099 16.31053,-11.38274 L 284.20954,82.024948 c 3.00504,-8.717963 -1.86752,-18.142201 -10.87816,-21.0453 -9.00617,-2.903098 -18.74682,1.80252 -21.75186,10.520483 L 182.79046,271.164 c -3.00504,8.71796 1.86752,18.1422 10.87816,21.04963 z m 0,0"
         inkscape:connector-curvature="0"
         style="fill:#000000;fill-opacity:1;stroke-width:1.12771034" />
      <path
         style="fill:#ffffff;fill-opacity:1;fill-rule:nonzero;stroke:none;stroke-width:26.2308712;stroke-miterlimit:4;stroke-dasharray:none;stroke-opacity:1;paint-order:stroke fill markers"
         d="m -25.074217,187.17402 c 0.0088,-131.952722 0.194905,-137.563617 4.804855,-144.878593 9.98481,-15.84371 -4.763187,-14.971345 253.101832,-14.971345 196.3253,0 234.92556,0.538951 241.94892,3.378179 16.47072,6.658357 16.05316,2.606861 16.05316,155.759479 V 324.44292 H 232.87557 -25.083401 Z M 211.11102,289.67398 c 2.58595,-2.26424 19.31209,-47.19464 40.33214,-108.34177 C 283.82629,87.129987 287.07356,76.196719 284.47309,70.122578 278.806,56.88543 259.19999,55.673354 252.30733,68.134034 246.59105,78.468062 181.28377,270.95239 181.28377,277.46632 c 0,13.56204 19.27207,21.44969 29.82725,12.20766 z m -56.85153,-34.16263 c 2.88872,-2.79488 4.91351,-7.92317 4.91351,-12.44467 0,-6.66159 -4.01641,-11.58607 -30.01365,-36.79938 L 99.145711,177.15868 129.15935,147.78572 C 156.0593,121.46 159.173,117.54825 159.173,110.07955 c 0,-9.3524 -4.96446,-14.952834 -15.513,-17.500254 -6.42624,-1.551903 -9.79192,1.10009 -47.674596,37.565364 -36.973208,35.58983 -40.7386,39.97077 -40.527547,47.15275 0.204304,6.95219 4.987585,12.49318 39.22856,45.44272 33.993393,32.71132 40.000573,37.52512 46.827723,37.52512 4.55619,0 9.88693,-1.98831 12.74535,-4.7539 z M 373.364,222.67286 c 34.76825,-33.63889 38.85447,-38.43333 38.85447,-45.58857 0,-7.14014 -4.11228,-12.00306 -38.41232,-45.42399 -21.12679,-20.58529 -41.03605,-38.064914 -44.24274,-38.843611 -12.71981,-3.088767 -25.87879,9.889491 -22.00388,21.701671 0.78378,2.38925 14.68541,17.14029 30.89253,32.78011 l 29.46746,28.43601 -30.67068,29.99067 c -33.07816,32.3447 -35.23007,36.40622 -25.57889,48.27717 3.82175,4.70074 7.30527,6.26293 13.9657,6.26293 8.18209,0 11.90282,-2.93055 47.72835,-37.59239 z"
         id="path839"
         inkscape:connector-curvature="0" />
      <path
         style="fill:#fff5ff;fill-opacity:1;fill-rule:nonzero;stroke:none;stroke-width:26.2308712;stroke-miterlimit:4;stroke-dasharray:none;stroke-opacity:1;paint-order:stroke fill markers"
         d="m -12.512518,387.12147 c -5.745408,-3.89353 -12.570883,-16.58929 -12.570883,-23.38252 0,-3.24794 27.8965006,-3.64178 257.958971,-3.64178 h 257.95898 v 7.36856 c 0,5.21064 -2.4462,9.73527 -8.35297,15.45017 l -8.35296,8.08163 H 233.66789 c -218.331965,0 -240.9871008,-0.35669 -246.180408,-3.87606 z"
         id="path841"
         inkscape:connector-curvature="0" />
      <path
         style="fill:#fff5ff;fill-opacity:1;fill-rule:nonzero;stroke:none;stroke-width:26.2308712;stroke-miterlimit:4;stroke-dasharray:none;stroke-opacity:1;paint-order:stroke fill markers"
         d="m -12.267036,387.28783 c -6.459998,-4.3778 -12.816365,-15.4469 -12.816365,-22.31871 v -4.87195 H 232.87557 490.83455 v 7.04815 c 0,4.49412 -2.76296,10.09279 -7.62476,15.45018 l -7.62475,8.40203 H 234.39608 c -214.58339,0 -241.7927903,-0.40922 -246.663116,-3.7097 z"
         id="path843"
         inkscape:connector-curvature="0" />
      <path
         style="fill:#fff5ff;fill-opacity:1;fill-rule:nonzero;stroke:none;stroke-width:26.2308712;stroke-miterlimit:4;stroke-dasharray:none;stroke-opacity:1;paint-order:stroke fill markers"
         d="m 184.48133,442.0503 5.20925,-15.50187 44.10753,0.64593 44.10752,0.64591 4.31884,11.88476 c 2.37535,6.53661 4.40452,13.22178 4.50924,14.85593 0.14689,2.29216 -12.11108,2.9712 -53.6356,2.9712 H 179.2721 Z"
         id="path845"
         inkscape:connector-curvature="0" />
      <path
         style="fill:#fff5ff;fill-opacity:1;fill-rule:nonzero;stroke:none;stroke-width:26.2308712;stroke-miterlimit:4;stroke-dasharray:none;stroke-opacity:1;paint-order:stroke fill markers"
         d="m 114.98909,514.00473 c 0.0792,-21.28659 -2.74483,-20.79831 120.2934,-20.79831 H 341.196 l 6.03021,5.83433 c 4.41496,4.27155 6.03021,8.41004 6.03021,15.45018 v 9.61585 H 234.10394 114.95147 Z"
         id="path847"
         inkscape:connector-curvature="0" />
      <path
         style="fill:#fff5ff;fill-opacity:1;fill-rule:nonzero;stroke:none;stroke-width:26.2308712;stroke-miterlimit:4;stroke-dasharray:none;stroke-opacity:1;paint-order:stroke fill markers"
         d="m 114.95147,513.8648 c 0,-20.67456 -7.48002,-19.38214 116.53426,-20.13538 l 109.56301,-0.66548 6.10384,5.90557 c 4.48887,4.34306 6.10384,8.44977 6.10384,15.52142 v 9.61585 H 234.10394 114.95147 Z"
         id="path849"
         inkscape:connector-curvature="0" />
    </g>
  </g>
</svg>
