<?xml version="1.0" encoding="UTF-8" standalone="no"?>
<svg
   xmlns:dc="http://purl.org/dc/elements/1.1/"
   xmlns:cc="http://creativecommons.org/ns#"
   xmlns:rdf="http://www.w3.org/1999/02/22-rdf-syntax-ns#"
   xmlns:svg="http://www.w3.org/2000/svg"
   xmlns="http://www.w3.org/2000/svg"
   xmlns:sodipodi="http://sodipodi.sourceforge.net/DTD/sodipodi-0.dtd"
   xmlns:inkscape="http://www.inkscape.org/namespaces/inkscape"
   height="512pt"
   viewBox="0 -1 512 512"
   width="512pt"
   version="1.1"
   id="svg1428"
   sodipodi:docname="frontend3.svg"
   inkscape:version="0.92.4 (5da689c313, 2019-01-14)">
  <metadata
     id="metadata1434">
    <rdf:RDF>
      <cc:Work
         rdf:about="">
        <dc:format>image/svg+xml</dc:format>
        <dc:type
           rdf:resource="http://purl.org/dc/dcmitype/StillImage" />
        <dc:title></dc:title>
      </cc:Work>
    </rdf:RDF>
  </metadata>
  <defs
     id="defs1432" />
  <sodipodi:namedview
     pagecolor="#ffffff"
     bordercolor="#666666"
     borderopacity="1"
     objecttolerance="10"
     gridtolerance="10"
     guidetolerance="10"
     inkscape:pageopacity="0"
     inkscape:pageshadow="2"
     inkscape:window-width="1366"
     inkscape:window-height="715"
     id="namedview1430"
     showgrid="false"
     inkscape:zoom="0.79980469"
     inkscape:cx="341.33333"
     inkscape:cy="341.33333"
     inkscape:window-x="-8"
     inkscape:window-y="-8"
     inkscape:window-maximized="1"
     inkscape:current-layer="svg1428" />
  <path
     d="m457 0h-402c-30.328125 0-55 24.671875-55 55v280c0 30.328125 24.671875 55 55 55h130.1875l-10 30h-9.1875c-24.8125 0-45 20.1875-45 45v30c0 8.285156 6.714844 15 15 15h240c8.285156 0 15-6.714844 15-15v-30c0-24.8125-20.1875-45-45-45h-9.1875l-10-30h130.1875c30.328125 0 55-24.671875 55-55v-280c0-30.328125-24.671875-55-55-55zm-402 30h402c13.785156 0 25 11.214844 25 25v245h-452v-245c0-13.785156 11.214844-25 25-25zm306 435v15h-210v-15c0-8.269531 6.730469-15 15-15h180c8.269531 0 15 6.730469 15 15zm-55.8125-45h-98.375l10-30h78.375zm176.8125-85c0 13.785156-11.214844 25-25 25h-402c-13.785156 0-25-11.214844-25-25v-5h452zm0 0"
     id="path1420" />
  <path
     d="m325.394531 235.605469c2.925781 2.929687 6.765625 4.394531 10.605469 4.394531s7.679688-1.464844 10.605469-4.394531l60-60c5.859375-5.855469 5.859375-15.355469 0-21.210938l-60-60c-5.855469-5.859375-15.355469-5.859375-21.210938 0-5.859375 5.855469-5.859375 15.351563 0 21.210938l49.390625 49.394531-49.390625 49.394531c-5.859375 5.855469-5.859375 15.355469 0 21.210938zm0 0"
     id="path1422" />
  <path
     d="m165.394531 235.605469c2.925781 2.929687 6.765625 4.394531 10.605469 4.394531s7.679688-1.464844 10.605469-4.394531c5.859375-5.855469 5.859375-15.355469 0-21.210938l-49.390625-49.394531 49.390625-49.394531c5.859375-5.855469 5.859375-15.355469 0-21.210938-5.855469-5.859375-15.351563-5.859375-21.210938 0l-60 60c-5.859375 5.855469-5.859375 15.351563 0 21.210938zm0 0"
     id="path1424" />
  <path
     d="m221.257812 269.230469c1.570313.523437 3.171876.773437 4.746094.773437 6.277344 0 12.132813-3.976562 14.226563-10.261718l60-180c2.621093-7.859376-1.628907-16.355469-9.488281-18.972657-7.855469-2.617187-16.351563 1.625-18.972657 9.484375l-60 180c-2.621093 7.859375 1.628907 16.355469 9.488281 18.976563zm0 0"
     id="path1426" />
  <path
     style="fill:#eceef5;fill-opacity:1;fill-rule:nonzero;stroke:none;stroke-width:13.5718174;stroke-miterlimit:4;stroke-dasharray:none;stroke-opacity:1;paint-order:stroke fill markers"
     d="M 40.259829,236.15953 C 40.259829,49.114642 39.45986,63.216818 50.709433,51.949724 62.169941,40.471366 34.190369,41.438337 344.13921,41.808813 c 249.01652,0.297644 273.53096,0.505882 277.6035,2.3581 6.98836,3.178365 13.78951,9.875236 16.97409,16.713852 l 2.91542,6.260627 0.0125,166.603178 0.0119,166.60317 H 340.95824 40.259829 Z m 269.979091,123.5982 c 1.94695,-1.00681 4.9597,-3.51789 6.69502,-5.5802 4.05771,-4.82231 84.66411,-245.78145 84.66411,-253.08897 0,-13.483452 -12.30257,-22.989367 -25.24317,-19.504826 -11.52038,3.10212 -8.9714,-3.146386 -54.6487,133.963856 -44.90918,134.80453 -43.24005,128.63144 -37.17949,137.50399 5.27696,7.7254 17.55077,10.92661 25.71223,6.70615 z m -66.92914,-39.92201 c 2.29409,-0.95854 5.79251,-3.86859 7.77424,-6.46678 5.05369,-6.62573 5.13638,-16.68367 0.1955,-23.78011 -1.87421,-2.69187 -17.76435,-19.23308 -35.31141,-36.7582 l -31.90376,-31.8639 34.90568,-35.02743 c 30.10635,-30.21139 35.02358,-35.67212 35.76314,-39.7161 1.30409,-7.13085 -0.36074,-13.09 -5.13261,-18.37189 -7.71921,-8.54424 -19.43344,-9.17634 -28.93722,-1.56146 -2.60459,2.08692 -22.29335,21.43411 -43.75277,42.99374 -25.66453,25.78437 -39.67777,40.78042 -40.94751,43.81931 -2.25068,5.38665 -2.45961,10.61581 -0.62166,15.55905 1.41235,3.79858 83.13724,86.62061 89.33845,90.53782 4.45782,2.81593 12.73616,3.09852 18.62993,0.63595 z m 212.90773,0.42089 c 3.92794,-1.47521 85.35867,-82.0275 89.30105,-88.33771 2.87496,-4.60169 3.45039,-14.66856 1.1026,-19.28949 -2.14343,-4.21874 -84.89725,-87.1224 -89.28884,-89.45052 -4.73599,-2.51069 -14.24334,-2.47938 -19.15996,0.0631 -8.84022,4.57146 -13.03098,18.05189 -8.44117,27.15276 1.18385,2.3474 17.12664,19.31868 35.42841,37.71395 l 33.27595,33.44594 -33.96534,34.07054 c -18.68094,18.7388 -34.56168,35.65442 -35.29054,37.59028 -6.45164,17.13546 9.89161,33.48072 27.03784,27.04115 z"
     id="path5140"
     inkscape:connector-curvature="0"
     transform="matrix(0.74999998,0,0,0.74999998,0,-1)" />
  <path
     style="fill:#eceef5;fill-opacity:1;fill-rule:nonzero;stroke:none;stroke-width:13.5718174;stroke-miterlimit:4;stroke-dasharray:none;stroke-opacity:1;paint-order:stroke fill markers"
     d="M 59.570033,477.40541 C 48.21357,472.10648 40.259829,459.32819 40.259829,446.3821 v -4.77429 H 340.95824 641.65665 l -0.0275,7.18926 c -0.0448,11.70203 -6.90951,22.7784 -17.80921,28.73516 -3.82701,2.09151 -18.8789,2.2263 -280.98624,2.51624 l -276.942613,0.30635 z"
     id="path5142"
     inkscape:connector-curvature="0"
     transform="matrix(0.74999998,0,0,0.74999998,0,-1)" />
  <path
     style="fill:#eceef5;fill-opacity:1;fill-rule:nonzero;stroke:none;stroke-width:13.5718174;stroke-miterlimit:4;stroke-dasharray:none;stroke-opacity:1;paint-order:stroke fill markers"
     d="m 283.21999,540.9936 6.43511,-19.39322 51.79856,0.32606 51.79857,0.32606 6.04837,18.09662 c 3.3266,9.95313 6.04836,18.53335 6.04836,19.06715 0,0.5338 -28.92691,0.97054 -64.28203,0.97054 h -64.28204 z"
     id="path5144"
     inkscape:connector-curvature="0"
     transform="matrix(0.74999998,0,0,0.74999998,0,-1)" />
  <path
     style="fill:#eceef5;fill-opacity:1;fill-rule:nonzero;stroke:none;stroke-width:13.5718174;stroke-miterlimit:4;stroke-dasharray:none;stroke-opacity:1;paint-order:stroke fill markers"
     d="m 201.54921,629.41853 c 0,-14.24481 2.94793,-20.79481 11.24089,-24.9761 l 5.61452,-2.83082 124.63844,0.33021 c 124.251,0.32919 124.64944,0.33835 128.16816,2.94579 7.52598,5.57691 9.15606,9.70737 9.15606,23.20059 v 12.31815 H 340.95824 201.54921 Z"
     id="path5146"
     inkscape:connector-curvature="0"
     transform="matrix(0.74999998,0,0,0.74999998,0,-1)" />
</svg>
