<?xml version="1.0" encoding="UTF-8" standalone="no"?>
<svg
   xmlns:dc="http://purl.org/dc/elements/1.1/"
   xmlns:cc="http://creativecommons.org/ns#"
   xmlns:rdf="http://www.w3.org/1999/02/22-rdf-syntax-ns#"
   xmlns:svg="http://www.w3.org/2000/svg"
   xmlns="http://www.w3.org/2000/svg"
   xmlns:sodipodi="http://sodipodi.sourceforge.net/DTD/sodipodi-0.dtd"
   xmlns:inkscape="http://www.inkscape.org/namespaces/inkscape"
   viewBox="0 0 1366 753.57"
   version="1.1"
   id="svg1202"
   sodipodi:docname="bg.svg"
   inkscape:version="0.92.4 (5da689c313, 2019-01-14)">
  <metadata
     id="metadata1206">
    <rdf:RDF>
      <cc:Work
         rdf:about="">
        <dc:format>image/svg+xml</dc:format>
        <dc:type
           rdf:resource="http://purl.org/dc/dcmitype/StillImage" />
      </cc:Work>
    </rdf:RDF>
  </metadata>
  <sodipodi:namedview
     pagecolor="#ffffff"
     bordercolor="#666666"
     borderopacity="1"
     objecttolerance="10"
     gridtolerance="10"
     guidetolerance="10"
     inkscape:pageopacity="0"
     inkscape:pageshadow="2"
     inkscape:window-width="1366"
     inkscape:window-height="715"
     id="namedview1204"
     showgrid="false"
     inkscape:zoom="0.50219619"
     inkscape:cx="680.23997"
     inkscape:cy="407.69833"
     inkscape:window-x="-8"
     inkscape:window-y="-8"
     inkscape:window-maximized="1"
     inkscape:current-layer="Warstwa_1-2" />
  <defs
     id="defs1194">
    <style
       id="style1181">.cls-1{fill:url(#Gradient_bez_nazwy_15);}</style>
    <linearGradient
       id="Gradient_bez_nazwy_15"
       x1="1006.23"
       y1="196.88"
       x2="82.27"
       y2="711.14"
       gradientUnits="userSpaceOnUse">
      <stop
         offset="0.01"
         stop-color="#2aa9ff"
         id="stop1183" />
      <stop
         offset="0.18"
         stop-color="#2cb2fd"
         id="stop1185" />
      <stop
         offset="0.47"
         stop-color="#32cbf8"
         id="stop1187" />
      <stop
         offset="0.83"
         stop-color="#3cf3ef"
         id="stop1189" />
      <stop
         offset="0.93"
         stop-color="#3fffec"
         id="stop1191" />
    </linearGradient>
  </defs>
  <title
     id="title1196">bg</title>
  <g
     id="Warstwa_2"
     data-name="Warstwa 2">
    <g
       id="Warstwa_1-2"
       data-name="Warstwa 1">
      <path
         class="cls-1"
         d="m 129.33,699.83 c 42.26,-0.53 85.53,8.24 123.16,27.81 4.68,2.43 9.55,5.1 14.83,5.08 5.28,-0.02 10,-2.66 14.57,-5.1 79.82,-42.27 181,-41.13 259.89,2.91 6.48,3.62 13.24,7.63 20.66,7.54 5.59,-0.06 10.85,-2.46 16,-4.65 70.5,-30.08 154,-28.11 223,5.26 5.26,2.54 10.65,5.31 16.48,5.47 6.88,0.2 13.27,-3.26 19.41,-6.39 78.67,-40.15 177.32,-38.46 254.67,4.37 4,2.23 8.11,4.61 12.67,5.23 5.26,0.72 10.53,-1 15.57,-2.67 37.24,-12.41 70.93,-23.81 110.56,-24.42 47.1874,-0.77265 93.7692,10.70053 135.2,33.3 l -1.9913,-439.35134 c 0,0 -7,-170.05248 -332,-173.05248 C 707.00875,138.16618 683,0 683,0 H 0 v 734.13 c 39.600072,-21.97763 84.04319,-33.76452 129.33,-34.3 z"
         id="path1198"
         inkscape:connector-curvature="0"
         style="fill:url(#Gradient_bez_nazwy_15)"
         sodipodi:nodetypes="ccscccccccccccccscccc" />
    </g>
  </g>
</svg>
